<svg xmlns="http://www.w3.org/2000/svg" viewBox="0 0 64 64">
  <rect width="64" height="64" rx="8" fill="#3498db"/>
  <path d="M50.32,19.54,34.14,11.12a2.33,2.33,0,0,0-2.12,0L15.84,19.54a1.17,1.17,0,0,0,0,2.08l16.18,8.42a2.33,2.33,0,0,0,2.12,0l16.18-8.42a1.17,1.17,0,0,0,0-2.08ZM33.08,32.5a4.67,4.67,0,0,1-4.22,0L14.67,24.08V39.17a2.33,2.33,0,0,0,1.17,2L30.02,50.54a2.33,2.33,0,0,0,2.12,0l14.18-9.37a2.33,2.33,0,0,0,1.17-2V24.08Z" 
        fill="#ffffff"/>
  <circle cx="32" cy="20" r="3" fill="#ffffff"/>
  <path d="M38,30l-6,8-6-8" stroke="#ffffff" stroke-width="2" fill="none"/>
</svg> 